<?xml version="1.0" standalone="no"?>
<!DOCTYPE svg PUBLIC "-//W3C//DTD SVG 20010904//EN"
 "http://www.w3.org/TR/2001/REC-SVG-20010904/DTD/svg10.dtd">
<svg version="1.0" xmlns="http://www.w3.org/2000/svg"
 width="512.000000pt" height="512.000000pt" viewBox="0 0 512.000000 512.000000"
 preserveAspectRatio="xMidYMid meet">
<metadata>
Created by potrace 1.14, written by Peter Selinger 2001-2017
</metadata>
<g transform="translate(0.000000,512.000000) scale(0.100000,-0.100000)"
fill="#000000" stroke="none">
<path d="M3400 5105 c-186 -46 -337 -173 -414 -348 -34 -76 -48 -146 -50 -249
-2 -79 -5 -93 -22 -102 -10 -6 -40 -32 -65 -57 -53 -53 -62 -84 -63 -214 l-1
-80 -73 -3 c-53 -2 -72 0 -73 10 -1 7 -2 74 -2 148 l-2 135 -900 3 -900 2 0
-147 0 -148 -75 -5 -75 -5 0 -220 0 -220 38 -3 37 -3 0 -75 0 -74 -38 0 -37 0
1 -1562 c0 -860 4 -1579 8 -1598 22 -95 108 -205 196 -250 70 -35 132 -40 530
-40 l390 0 0 35 c0 21 5 36 13 36 6 1 40 2 75 3 l62 1 0 -37 0 -38 74 0 75 0
3 37 3 38 73 0 72 0 0 -37 0 -38 398 0 c247 0 412 4 437 11 130 34 218 113
266 238 l22 56 1 1872 1 1872 -74 3 -75 3 -2 101 c-2 133 -30 188 -125 246
-25 16 -26 19 -23 106 5 142 45 241 134 330 157 156 404 173 584 40 55 -41
127 -131 141 -178 4 -14 11 -29 15 -35 19 -25 24 -127 24 -514 1 -407 1 -413
-19 -421 -39 -15 -105 -91 -118 -137 -7 -24 -13 -82 -12 -128 0 -51 -4 -86
-10 -86 -5 -1 -35 -3 -65 -4 -30 -2 -60 -3 -65 -4 -11 -1 -14 -2069 -3 -2087
4 -6 35 -10 72 -9 37 1 66 -1 67 -4 1 -3 2 -116 3 -251 2 -198 6 -252 18 -282
18 -40 95 -121 108 -113 20 12 25 -35 26 -280 1 -143 2 -262 3 -265 0 -3 34
-6 74 -5 l72 0 0 267 0 266 49 34 c31 21 58 51 74 83 26 48 26 51 28 294 1
135 2 248 3 251 0 3 34 6 73 5 l73 0 0 1048 c0 925 -2 1047 -15 1048 -8 1 -42
2 -75 3 l-59 1 -2 100 c-1 67 -7 113 -18 138 -18 42 -75 102 -106 112 -11 4
-21 9 -21 13 -1 4 -2 198 -3 432 -3 473 -4 486 -68 618 -68 140 -200 254 -349
303 -80 26 -240 33 -319 14z"/>
</g>
</svg>
